name Run_20002_IK.mot
datacolumns 164
datarows 4
range 0.78 0.81
endheader
time	         pelvis_tilt	         pelvis_list	     pelvis_rotation	           pelvis_tx	           pelvis_ty	           pelvis_tz	       hip_flexion_r	     hip_adduction_r	      hip_rotation_r	        knee_angle_r	       ankle_angle_r	       hip_flexion_l	     hip_adduction_l	      hip_rotation_l	        knee_angle_l	       ankle_angle_l	    lumbar_extension	      lumbar_bending	     lumbar_rotation	          arm_flex_r	           arm_add_r	           arm_rot_r	        elbow_flex_r	           pro_sup_r	          arm_flex_l	           arm_add_l	           arm_rot_l	        elbow_flex_l	           pro_sup_l	    subtalar_angle_r	         mtp_angle_r	    subtalar_angle_l	         mtp_angle_l	        wrist_flex_r	         wrist_dev_r	        wrist_flex_l	         wrist_dev_l	             LASI_tx	             LASI_ty	             LASI_tz	             RASI_tx	             RASI_ty	             RASI_tz	             LPSI_tx	             LPSI_ty	             LPSI_tz	             RPSI_tx	             RPSI_ty	             RPSI_tz	             RTH1_tx	             RTH1_ty	             RTH1_tz	             RTH2_tx	             RTH2_ty	             RTH2_tz	             RTH3_tx	             RTH3_ty	             RTH3_tz	             LTH1_tx	             LTH1_ty	             LTH1_tz	             LTH2_tx	             LTH2_ty	             LTH2_tz	             LTH3_tx	             LTH3_ty	             LTH3_tz	             RTB1_tx	             RTB1_ty	             RTB1_tz	             RTB2_tx	             RTB2_ty	             RTB2_tz	             RTB3_tx	             RTB3_ty	             RTB3_tz	             LTB1_tx	             LTB1_ty	             LTB1_tz	             LTB2_tx	             LTB2_ty	             LTB2_tz	             LTB3_tx	             LTB3_ty	             LTB3_tz	             RCAL_tx	             RCAL_ty	             RCAL_tz	             RTOE_tx	             RTOE_ty	             RTOE_tz	             RMT5_tx	             RMT5_ty	             RMT5_tz	             LCAL_tx	             LCAL_ty	             LCAL_tz	             LTOE_tx	             LTOE_ty	             LTOE_tz	             LMT5_tx	             LMT5_ty	             LMT5_tz	             LACR_tx	             LACR_ty	             LACR_tz	             RACR_tx	             RACR_ty	             RACR_tz	             CLAV_tx	             CLAV_ty	             CLAV_tz	               C7_tx	               C7_ty	               C7_tz	             RUA1_tx	             RUA1_ty	             RUA1_tz	             RUA2_tx	             RUA2_ty	             RUA2_tz	             RUA3_tx	             RUA3_ty	             RUA3_tz	             RLEL_tx	             RLEL_ty	             RLEL_tz	             RMEL_tx	             RMEL_ty	             RMEL_tz	             LUA1_tx	             LUA1_ty	             LUA1_tz	             LUA2_tx	             LUA2_ty	             LUA2_tz	             LUA3_tx	             LUA3_ty	             LUA3_tz	             LLEL_tx	             LLEL_ty	             LLEL_tz	             LMEL_tx	             LMEL_ty	             LMEL_tz	      RFAsuperior_tx	      RFAsuperior_ty	      RFAsuperior_tz	        RFAradius_tx	        RFAradius_ty	        RFAradius_tz	          RFAulna_tx	          RFAulna_ty	          RFAulna_tz	      LFAsuperior_tx	      LFAsuperior_ty	      LFAsuperior_tz	        LFAradius_tx	        LFAradius_ty	        LFAradius_tz	          LFAulna_tx	          LFAulna_ty	          LFAulna_tz	
0.78	        -13.82440176	          2.68466587	         -2.96801882	          1.03346251	          0.97734700	         -0.35608973	         41.01100208	         -1.01572052	          5.66006374	        -78.08411711	          7.92883716	         24.98263963	          7.81325213	         -1.22004947	        -38.69725280	         23.35319396	          1.66768316	         -2.86361204	         -2.35374312	        -29.61506694	        -17.88340172	         -8.34122593	         86.23268486	        116.32040452	        -19.48312634	         -9.09458123	        -11.42757338	        108.46005895	        105.34328191	          0.00000000	          0.00000000	          0.00000000	          0.00000000	          0.00000000	          0.00000000	          0.00000000	          0.00000000	          1.07073274	          1.00877362	         -0.47671405	          1.04668652	          1.02339762	         -0.23370521	          0.89374578	          1.08406694	         -0.42078399	          0.88756424	          1.07677175	         -0.30759560	          0.98589731	          0.90373953	         -0.18584655	          0.98837910	          0.75370455	         -0.20350443	          1.08853899	          0.62573591	         -0.20246996	          1.00437788	          0.89569268	         -0.53475527	          0.94602421	          0.73751116	         -0.49043410	          1.01117557	          0.60913665	         -0.47929499	          1.07303116	          0.39974674	         -0.26001753	          0.98670120	          0.43193027	         -0.19155370	          0.92208966	          0.29944214	         -0.26082508	          1.03297294	          0.38344523	         -0.39741265	          0.91670141	          0.31277319	         -0.45172381	          0.91432374	          0.19883847	         -0.38491996	          0.73202333	          0.29583721	         -0.25342114	          0.89918588	          0.11985340	         -0.27496395	          0.84702174	          0.13421559	         -0.18075720	          0.73574639	          0.11149427	         -0.36362677	          0.97044372	          0.07136937	         -0.34712151	          0.92080895	          0.03739011	         -0.44429084	          1.04273550	          1.50136071	         -0.52908086	          1.04622491	          1.48998017	         -0.20070052	          1.10364279	          1.45464970	         -0.33069528	          0.99145507	          1.53459975	         -0.36856895	          0.92057740	          1.40913930	         -0.14647902	          0.95064606	          1.34538554	         -0.11291694	          0.86785653	          1.28379681	         -0.07948914	          0.82262215	          1.23545947	         -0.05440960	          0.82379350	          1.20649517	         -0.13922033	          0.95494577	          1.39137394	         -0.58495356	          0.98926970	          1.31097331	         -0.59566218	          0.92592722	          1.23547998	         -0.61409509	          0.91449556	          1.16907518	         -0.63062551	          0.90113833	          1.15335426	         -0.54212583	          0.89006117	          1.14737920	         -0.04230321	          1.01853744	          1.03958451	         -0.11758861	          0.97796326	          1.01385452	         -0.06760152	          0.98477651	          1.12094393	         -0.62332997	          1.15422966	          1.13264080	         -0.53474988	          1.14859994	          1.06957938	         -0.56869610	
0.79	        -13.79577304	          2.42217172	         -3.26127660	          1.03339770	          0.98276047	         -0.35572257	         41.76983864	         -0.74356324	          5.35402622	        -75.65843541	          8.43425974	         22.60568129	          7.60823717	         -0.93624320	        -36.52893887	         22.29722048	          1.75285674	         -2.38659707	         -3.08924097	        -31.00126213	        -18.44356208	         -8.36196920	         87.67970590	        115.70990506	        -19.32657418	         -8.77686295	        -11.49390552	        110.60701385	        104.64777331	          0.00000000	          0.00000000	          0.00000000	          0.00000000	          0.00000000	          0.00000000	          0.00000000	          0.00000000	          1.06993055	          1.01399168	         -0.47648258	          1.04581512	          1.02871688	         -0.23349794	          0.89462861	          1.08880172	         -0.42172054	          0.88713154	          1.08225078	         -0.30884836	          0.98511968	          0.90985120	         -0.18462365	          0.99027087	          0.75990830	         -0.20242965	          1.09293055	          0.63397465	         -0.20187572	          1.00291556	          0.89849105	         -0.53382947	          0.93835542	          0.74234379	         -0.48933791	          0.99915788	          0.61193006	         -0.47783515	          1.08519218	          0.40472777	         -0.25914526	          0.99636372	          0.43325422	         -0.19239181	          0.93958462	          0.29630560	         -0.26129803	          1.01580159	          0.38523345	         -0.39658479	          0.89905593	          0.31573558	         -0.45113952	          0.89624450	          0.20141485	         -0.38462618	          0.75023211	          0.28120408	         -0.25542454	          0.92872539	          0.11607345	         -0.27346521	          0.87449119	          0.12791219	         -0.17987198	          0.71734469	          0.11571643	         -0.36415046	          0.95090478	          0.07087404	         -0.34660477	          0.90066064	          0.03783566	         -0.44392068	          1.04392958	          1.50718756	         -0.52794774	          1.04264386	          1.49603505	         -0.19964949	          1.10238449	          1.46006027	         -0.32890886	          0.99096326	          1.53979683	         -0.36820889	          0.91506110	          1.41732370	         -0.14786469	          0.94343672	          1.35376012	         -0.11219902	          0.85922908	          1.29380630	         -0.07995289	          0.81264440	          1.24646192	         -0.05543430	          0.81447227	          1.21742688	         -0.14009627	          0.95689615	          1.39663312	         -0.58436366	          0.99286401	          1.31652261	         -0.59469102	          0.93117851	          1.24004844	         -0.61403317	          0.91988988	          1.17384310	         -0.62987409	          0.90535984	          1.15846476	         -0.54140311	          0.87941142	          1.15841435	         -0.04282866	          1.00868765	          1.05095139	         -0.11647284	          0.96737776	          1.02474413	         -0.06734423	          0.99136124	          1.12884807	         -0.62081746	          1.15857881	          1.14825923	         -0.53010223	          1.15600724	          1.08420207	         -0.56252344	
0.8	        -13.74510114	          2.09927238	         -3.63905646	          1.03361636	          0.98870820	         -0.35520831	         42.25175026	         -0.41275863	          4.94223076	        -72.75946476	          8.92987370	         20.16107258	          7.28270130	         -0.77056332	        -34.25009851	         20.95442551	          1.84272577	         -1.82212179	         -3.62844369	        -32.45080819	        -18.91994129	         -8.58206879	         89.16997840	        115.22108701	        -19.25041618	         -8.52127883	        -11.45608267	        112.74839320	        104.07204708	          0.00000000	          0.00000000	          0.00000000	          0.00000000	          0.00000000	          0.00000000	          0.00000000	          0.00000000	          1.06927096	          1.01978444	         -0.47607375	          1.04508669	          1.03461122	         -0.23311186	          0.89614638	          1.09409763	         -0.42289807	          0.88687348	          1.08802127	         -0.31040678	          0.98432226	          0.91660660	         -0.18322068	          0.99174635	          0.76680844	         -0.20128583	          1.09639826	          0.64255413	         -0.20114301	          1.00164071	          0.90178113	         -0.53279438	          0.93075354	          0.74807001	         -0.48824068	          0.98711699	          0.61562367	         -0.47630969	          1.09657176	          0.40995890	         -0.25819419	          1.00526287	          0.43390960	         -0.19326928	          0.95609406	          0.29236727	         -0.26176307	          0.99872254	          0.38801959	         -0.39558247	          0.88169639	          0.31958408	         -0.45074155	          0.87847242	          0.20480834	         -0.38440210	          0.76954475	          0.26570590	         -0.25809106	          0.95899930	          0.11287515	         -0.27195530	          0.90270860	          0.12161641	         -0.17927741	          0.69937601	          0.12107160	         -0.36493302	          0.93160966	          0.07081433	         -0.34690524	          0.88054785	          0.03832440	         -0.44365594	          1.04487649	          1.51346390	         -0.52660902	          1.03937886	          1.50242672	         -0.19854026	          1.10126233	          1.46613712	         -0.32709595	          0.99054919	          1.54545351	         -0.36754533	          0.91002164	          1.42592751	         -0.14919653	          0.93664191	          1.36250499	         -0.11167863	          0.85095886	          1.30414288	         -0.08067923	          0.80303557	          1.25774824	         -0.05687822	          0.80539069	          1.22870251	         -0.14133344	          0.95873457	          1.40261093	         -0.58367215	          0.99605929	          1.32285009	         -0.59385402	          0.93593005	          1.24554314	         -0.61421654	          0.92467061	          1.17945912	         -0.62930718	          0.90893759	          1.16446430	         -0.54085186	          0.86909149	          1.16971865	         -0.04369441	          0.99947931	          1.06289543	         -0.11557291	          0.95761855	          1.03619933	         -0.06722716	          0.99707186	          1.13744997	         -0.61857785	          1.16173026	          1.16446567	         -0.52570411	          1.16215644	          1.09967527	         -0.55671357	
0.81	        -13.71006697	          1.72712609	         -4.03609217	          1.03412580	          0.99505139	         -0.35455024	         42.48664643	         -0.06285615	          4.35920149	        -69.39602920	          9.37599717	         17.72852841	          6.85686721	         -0.68794996	        -31.93609325	         19.31293986	          1.97158422	         -1.20236179	         -4.04080728	        -33.92476622	        -19.25767415	         -8.99315914	         90.60749139	        114.82061629	        -19.28708940	         -8.33722709	        -11.32062467	        114.84579754	        103.65090438	          0.00000000	          0.00000000	          0.00000000	          0.00000000	          0.00000000	          0.00000000	          0.00000000	          0.00000000	          1.06876787	          1.02601022	         -0.47553170	          1.04451469	          1.04093776	         -0.23259122	          0.89818090	          1.09977569	         -0.42412771	          0.88697700	          1.09432243	         -0.31157651	          0.98360493	          0.92393094	         -0.18172348	          0.99273540	          0.77426894	         -0.20021113	          1.09871885	          0.65125818	         -0.20049279	          1.00065231	          0.90557119	         -0.53163899	          0.92348758	          0.75451529	         -0.48741880	          0.97546341	          0.62016230	         -0.47505645	          1.10711051	          0.41536626	         -0.25718239	          1.01335812	          0.43383335	         -0.19408703	          0.97224416	          0.28777581	         -0.26217086	          0.98183267	          0.39185840	         -0.39477930	          0.86466953	          0.32424759	         -0.45058825	          0.86109204	          0.20907480	         -0.38439641	          0.79008595	          0.24951281	         -0.26154459	          0.98995323	          0.11031317	         -0.27069449	          0.93148277	          0.11549507	         -0.17903504	          0.68201003	          0.12758914	         -0.36601017	          0.91247090	          0.07089800	         -0.34749691	          0.86073680	          0.03925033	         -0.44420012	          1.04576871	          1.52002837	         -0.52509194	          1.03651680	          1.50898830	         -0.19740100	          1.10028278	          1.47263202	         -0.32519139	          0.99021909	          1.55145054	         -0.36673025	          0.90551975	          1.43466106	         -0.15065146	          0.93036905	          1.37143844	         -0.11140338	          0.84317688	          1.31466500	         -0.08176272	          0.79391438	          1.26912058	         -0.05885874	          0.79677217	          1.24006243	         -0.14308632	          0.96069700	          1.40925667	         -0.58317914	          0.99887442	          1.32977478	         -0.59319887	          0.93983081	          1.25194125	         -0.61456269	          0.92875355	          1.18576437	         -0.62899303	          0.91177909	          1.17119262	         -0.54053813	          0.85932221	          1.18116396	         -0.04490622	          0.99098496	          1.07503320	         -0.11483843	          0.94858309	          1.04789552	         -0.06725953	          1.00197272	          1.14661203	         -0.61669806	          1.16369292	          1.18082737	         -0.52152297	          1.16701609	          1.11550312	         -0.55126940	
